<svg width="123" height="71" viewBox="0 0 123 71" fill="none" xmlns="http://www.w3.org/2000/svg">
<g clip-path="url(#clip0_1_6)">
<path d="M20.6183 34.4062C20.5007 35.122 20.384 35.8213 20.2714 36.5217C20.084 37.6868 19.8977 38.8523 19.7125 40.0174C19.5049 41.3119 19.2963 42.6065 19.0869 43.9011C18.8342 45.465 18.5816 47.0292 18.3289 48.5931C18.2136 49.305 18.1131 50.0197 17.9761 50.7283C17.6034 52.6542 16.0451 54.2004 14.1109 54.5482C12.5556 54.8278 10.9944 55.0758 9.43623 55.3366C8.73744 55.4545 8.03862 55.5731 7.33982 55.6927C7.2861 55.7019 7.23271 55.7153 7.17866 55.7196C6.9438 55.7387 6.87632 55.6736 6.90941 55.4401C6.94937 55.1585 7.0008 54.879 7.04764 54.5988C7.35073 52.7885 7.65396 50.9783 7.95728 49.1677C8.25209 47.4116 8.55508 45.6562 8.84956 43.8998C9.16566 42.0136 9.4739 40.1264 9.79 38.2403C10.1503 36.0959 10.5165 33.9526 10.8759 31.8082C11.1707 30.041 11.4596 28.2721 11.7554 26.5045C12.0476 24.7587 12.3424 23.0134 12.6398 21.2685C12.7564 20.5787 12.8715 19.8889 12.985 19.199C13.0024 19.0933 13.0011 18.9845 13.0113 18.8331C12.6634 18.7973 12.3286 18.8121 11.9958 18.8065C11.6463 18.8009 11.2971 18.8029 10.9476 18.8022C10.6115 18.8022 10.2751 18.8022 9.8994 18.8022C9.98392 18.0875 10.1287 17.4091 10.2564 16.7085L24.3299 11.1078C24.323 11.2441 24.3273 11.3463 24.3112 11.4452C23.9522 13.667 23.5919 15.8889 23.2302 18.1108C22.868 20.3658 22.5139 22.6222 22.1529 24.8776C21.8867 26.539 21.6177 28.2001 21.3461 29.8607C21.3443 29.8912 21.3443 29.9218 21.3461 29.9523C21.406 29.9515 21.4658 29.9453 21.5246 29.9339C24.0334 29.1929 26.1947 27.8871 27.935 25.9182C29.565 24.0747 30.5762 21.9186 31.077 19.5127C31.3362 18.2586 31.4483 16.9783 31.4111 15.6981C31.3571 13.6506 30.6217 11.8837 29.2211 10.3983C27.7369 8.82453 25.8845 7.88835 23.8317 7.31054C22.7487 7.0105 21.6368 6.82705 20.5151 6.76329C17.3148 6.56817 14.2861 7.17586 11.4458 8.67901C10.3695 9.24893 9.39168 9.9601 8.49186 10.7846C7.62677 11.5779 6.82457 12.425 6.16617 13.4013C5.65517 14.1601 5.24899 14.9688 5.10552 15.8853C4.94173 16.9292 5.12681 17.8891 5.81305 18.7204C5.86022 18.7779 5.90248 18.84 5.94408 18.8965C5.9241 18.9264 5.91656 18.9524 5.89953 18.9622C4.8356 19.5384 3.72156 19.8163 2.5325 19.4359C1.41551 19.0772 0.710924 18.2721 0.290989 17.1996C-0.0280573 16.3839 -0.0529521 15.5401 0.0656258 14.6798C0.232858 13.4647 0.581353 12.2817 1.09942 11.1706C1.81154 9.63227 2.80929 8.30256 4.01768 7.12265C5.55723 5.61852 7.33327 4.45404 9.25214 3.50374C11.7596 2.26305 14.406 1.4287 17.1415 0.857797C19.0562 0.460373 21.0144 0.314943 22.9666 0.425183C25.9146 0.584826 28.7533 1.22044 31.4177 2.53274C33.5265 3.57206 35.3386 4.98487 36.7333 6.90158C37.851 8.4379 38.5677 10.1506 38.9375 12.0108C39.1389 13.0209 39.2208 14.0438 39.2844 15.071C39.3499 16.1464 39.3073 17.2166 39.1887 18.2816C38.832 21.4899 37.7006 24.3829 35.6373 26.8879C34.0119 28.8608 32.0116 30.3537 29.7573 31.5195C27.4342 32.7221 24.969 33.5154 22.4166 34.0488C21.8286 34.174 21.2396 34.2837 20.6183 34.4062Z" fill="white"/>
<path d="M74.7971 22.6622C74.8783 22.5738 74.9353 22.5134 74.9903 22.4516C76.0955 21.2149 77.3609 20.1917 78.8821 19.5084C79.8753 19.0623 80.911 18.7601 81.994 18.6734C82.7316 18.6146 83.4772 18.5841 84.2155 18.6189C85.3947 18.6744 86.516 18.9773 87.5586 19.5528C89.0382 20.3694 89.9498 21.6278 90.4179 23.2318C90.6773 24.1187 90.7887 25.0289 90.8166 25.95C90.8637 27.4975 90.6996 29.0279 90.451 30.5534C90.2315 31.9002 90.0386 33.2539 89.8316 34.6039C89.6462 35.8137 89.4555 37.0222 89.2711 38.232C89.0847 39.4527 88.9049 40.6743 88.7188 41.8953C88.5344 43.1048 88.3444 44.3139 88.1594 45.5234C87.9743 46.7329 87.7928 47.9437 87.6104 49.1538C87.539 49.6291 87.4718 50.1064 87.3971 50.5801C87.3483 50.8885 87.3133 50.9197 87.0004 50.9414C85.9886 51.0071 84.9764 51.0705 83.9646 51.1385C82.822 51.215 81.6798 51.2985 80.5373 51.374C79.721 51.4282 78.9044 51.4745 78.0878 51.5235C78.0226 51.5287 77.9571 51.5304 77.8912 51.5284C77.6924 51.5182 77.6403 51.4598 77.6718 51.2574C77.7586 50.696 77.8516 50.1353 77.9417 49.5746C78.1513 48.2689 78.361 46.9635 78.5703 45.6581C78.7573 44.4926 78.9443 43.3275 79.1317 42.1623C79.3381 40.8671 79.5438 39.5719 79.7488 38.2767C79.9798 36.8314 80.2117 35.386 80.4449 33.9407C80.6306 32.7756 80.8213 31.6111 80.9939 30.444C81.0719 29.9184 81.1407 29.386 81.1629 28.8545C81.1973 28.0214 81.1433 27.1907 80.8609 26.3948C80.782 26.1676 80.6785 25.9498 80.552 25.7454C80.1783 25.1541 79.6394 24.8256 78.9342 24.7727C77.5096 24.6679 76.4254 25.2858 75.557 26.3619C74.65 27.486 74.08 28.7799 73.6594 30.151C73.3823 31.055 73.2863 31.9905 73.1353 32.9178C72.8952 34.3845 72.6663 35.8525 72.4357 37.3195C72.227 38.6472 72.0249 39.976 71.8159 41.3037C71.6328 42.4695 71.4415 43.634 71.2591 44.7998C71.0497 46.1272 70.8467 47.4559 70.6383 48.7836C70.4909 49.7227 70.3412 50.6612 70.1889 51.5997C70.1417 51.8907 70.052 51.966 69.7585 51.9857C68.4201 52.076 67.0816 52.1663 65.7435 52.2567C64.4595 52.3444 63.1758 52.4327 61.8917 52.5218C61.4351 52.5546 60.9798 52.6009 60.5228 52.6295C60.1658 52.6518 60.1157 52.5967 60.1701 52.2419C60.3011 51.378 60.4406 50.5147 60.5779 49.6515C60.7666 48.4643 60.9559 47.2775 61.1452 46.0907C61.3349 44.9035 61.5272 43.7174 61.7142 42.5299C61.9435 41.0731 62.1679 39.615 62.3978 38.1578C62.6025 36.8626 62.8135 35.5687 63.0202 34.2735C63.2056 33.108 63.3861 31.9412 63.5708 30.7764C63.7569 29.6002 63.9442 28.424 64.1329 27.2478C64.3173 26.0824 64.5008 24.9167 64.6836 23.7508C64.8617 22.6173 65.0403 21.4839 65.2188 20.3507C65.2581 20.103 65.3043 20.0701 65.566 20.06C65.5768 20.06 65.5876 20.06 65.5988 20.06C67.2146 20.0337 68.8299 20.007 70.4441 19.9798C71.055 19.969 71.6652 19.9401 72.2761 19.9345C73.5052 19.923 74.4954 20.7189 74.7381 21.9172C74.7827 22.1452 74.7764 22.3853 74.7971 22.6622Z" fill="white"/>
<path d="M81.7867 56.2635C81.9642 56.3292 82.0746 56.3647 82.1797 56.4087C83.412 56.9195 84.6879 57.2375 86.0266 57.2207C86.8354 57.2079 87.6369 57.0686 88.4028 56.8078C89.3678 56.4833 90.0078 55.8309 90.3583 54.8753C90.5876 54.2446 90.7013 53.5873 90.8169 52.9314C91.06 51.5429 91.2955 50.153 91.5228 48.7619C91.7793 47.1763 92.0178 45.5874 92.2687 44.0009C92.5196 42.4143 92.778 40.8287 93.029 39.2421C93.2582 37.785 93.482 36.3265 93.7116 34.869C93.895 33.7032 94.0857 32.5384 94.2704 31.3729C94.4758 30.0777 94.6773 28.7819 94.8823 27.4866C95.1146 26.0194 95.3478 24.5522 95.582 23.085C95.6524 22.6425 95.7212 22.198 95.7926 21.7572C96.1329 19.651 97.8684 17.9908 99.989 17.7497C100.248 17.7201 100.51 17.7041 100.772 17.6965C101.895 17.6636 103.019 17.6384 104.143 17.6081C104.918 17.5871 105.692 17.5628 106.467 17.5401C106.532 17.5382 106.598 17.5329 106.663 17.5372C106.852 17.5503 106.896 17.5884 106.874 17.7839C106.834 18.1311 106.776 18.4763 106.722 18.8219C106.487 20.3224 106.25 21.8225 106.013 23.3221C105.763 24.8988 105.508 26.4729 105.26 28.0487C105.05 29.3767 104.847 30.7055 104.639 32.0335C104.46 33.178 104.28 34.3221 104.098 35.4662C103.91 36.6533 103.722 37.8405 103.533 39.0279C103.323 40.3553 103.113 41.6827 102.904 43.0108C102.72 44.1766 102.537 45.3424 102.354 46.5085C102.123 47.9758 101.891 49.4435 101.657 50.9122C101.519 51.7866 101.334 52.6571 101.26 53.5368C101.202 54.2548 101.106 54.969 100.972 55.6768C100.623 57.5016 100.099 59.2675 99.159 60.8866C97.7894 63.2445 95.7651 64.6898 93.1082 65.2535C91.5687 65.5819 90.0124 65.5843 88.4503 65.4657C87.3958 65.3858 86.3804 65.1559 85.4177 64.7164C83.4422 63.8144 82.2832 62.2626 81.8515 60.1505C81.6547 59.2176 81.6026 58.26 81.6963 57.311C81.7306 56.9849 81.7529 56.6603 81.7867 56.2635Z" fill="white"/>
<path d="M43.8578 40.5787C43.715 41.6266 43.6413 42.6583 43.7628 43.6993C43.825 44.2341 43.9354 44.7557 44.1271 45.2596C44.6692 46.6862 45.7197 47.4933 47.193 47.7735C48.3143 47.9873 49.4326 47.9049 50.5404 47.6799C52.9608 47.1871 55.1469 46.1495 57.1808 44.7659C57.2748 44.7018 57.3773 44.6516 57.5283 44.5662C57.5283 44.7008 57.5424 44.7748 57.5264 44.8414C57.0704 46.7138 56.319 48.4489 55.0726 49.9382C53.9104 51.327 52.4553 52.3062 50.7789 52.9632C49.5115 53.4599 48.1938 53.7391 46.8448 53.9007C45.5176 54.0597 44.186 54.0741 42.8571 54.0045C40.9838 53.906 39.1605 53.5594 37.4297 52.7891C34.8452 51.6381 33.231 49.6866 32.5864 46.9342C32.2317 45.4186 32.1904 43.8829 32.3005 42.3354C32.5357 39.0223 33.4629 35.8899 34.7663 32.8606C35.5449 31.0513 36.6006 29.4033 37.8559 27.8887C39.1815 26.29 40.6778 24.8703 42.3847 23.6867C44.2689 22.3797 46.361 21.5598 48.6006 21.1075C49.8755 20.8503 51.1641 20.7261 52.4658 20.6877C53.8124 20.6479 55.1479 20.7146 56.469 20.9794C57.4592 21.1764 58.4059 21.501 59.2608 22.0581C60.5668 22.9092 61.3186 24.1236 61.5364 25.655C61.8597 27.9268 61.3893 30.0514 60.2366 32.022C59.193 33.8063 57.7648 35.2412 56.1064 36.4513C53.7974 38.1384 51.2172 39.224 48.4529 39.8941C47.235 40.194 45.9951 40.3951 44.7452 40.4953C44.4625 40.5169 44.1818 40.5478 43.8578 40.5787ZM44.3839 37.4528C44.511 37.4528 44.6089 37.4591 44.7055 37.4528C45.5546 37.3871 46.3971 37.2791 47.213 37.0225C49.8001 36.2085 51.9211 34.7241 53.5763 32.5693C54.3808 31.5217 54.9986 30.3684 55.3618 29.0873C55.5767 28.3287 55.6848 27.5437 55.6835 26.7551C55.6835 26.1875 55.6347 25.6182 55.3844 25.09C55.1319 24.5562 54.7198 24.2169 54.1397 24.1417C53.8147 24.1041 53.4859 24.1106 53.1626 24.1611C52.4006 24.2721 51.7383 24.6265 51.1248 25.0808C50.3625 25.6445 49.732 26.3389 49.1594 27.0882C48.106 28.4678 47.2625 29.9716 46.5147 31.5329C45.6093 33.4204 44.9276 35.3883 44.3848 37.4528H44.3839Z" fill="white"/>
<path d="M3.15741 70.2904C3.5505 70.003 3.93571 69.6992 4.34189 69.4308C5.7039 68.5268 7.1763 67.8373 8.688 67.2299C11.5791 66.0678 14.5671 65.2167 17.5859 64.4667C20.1894 63.8203 22.8129 63.2658 25.4501 62.7796C27.4112 62.4183 29.3792 62.0898 31.3462 61.7695C32.8841 61.5179 34.4253 61.287 35.9684 61.0669C37.3606 60.8698 38.756 60.6947 40.1504 60.5154C41.4803 60.3446 42.8099 60.1748 44.1411 60.0164C45.2021 59.89 46.265 59.7812 47.327 59.6646C48.2586 59.5621 49.1898 59.4547 50.1224 59.3588C50.9033 59.278 51.6856 59.2123 52.4668 59.1367C53.4976 59.0366 54.5278 58.9288 55.5587 58.8329C56.4165 58.7534 57.2754 58.6877 58.1336 58.6138C59.057 58.5343 59.9801 58.4496 60.9035 58.3724C61.5118 58.3208 62.1207 58.2758 62.7297 58.2288C63.8169 58.1447 64.904 58.059 65.9912 57.9785C66.7092 57.9256 67.4276 57.88 68.1459 57.8317C69.3645 57.7489 70.583 57.6661 71.8015 57.583C72.1825 57.5574 72.5634 57.5328 72.9447 57.5117C74.2953 57.4372 75.6461 57.3636 76.9967 57.291C77.3341 57.2726 77.6715 57.2499 78.0092 57.2315C78.0944 57.2269 78.1798 57.2315 78.301 57.2315C77.9486 59.4478 77.9908 61.6237 78.6044 63.7924C78.4733 63.8045 78.3892 63.8176 78.305 63.8193C76.9079 63.8423 75.5109 63.8613 74.1141 63.885C73.0558 63.904 71.9974 63.9274 70.9391 63.9546C69.4663 63.9934 67.9936 64.0361 66.5212 64.0827C65.2778 64.1221 64.0347 64.1658 62.7919 64.2141C61.7889 64.2526 60.7859 64.2949 59.7832 64.3412C58.3777 64.4053 56.9721 64.4723 55.5662 64.5423C54.4007 64.6014 53.2353 64.6658 52.0701 64.7354C50.6328 64.8202 49.1957 64.9085 47.7591 65.0002C46.4966 65.0823 45.2345 65.17 43.9731 65.263C42.5485 65.3674 41.1243 65.4768 39.7003 65.5915C38.4068 65.6956 37.1139 65.805 35.8217 65.9199C34.421 66.0451 33.0207 66.1765 31.621 66.3141C30.1345 66.4606 28.6487 66.6098 27.1642 66.774C25.5611 66.9524 23.9593 67.1445 22.3582 67.3406C20.7463 67.5377 19.134 67.7348 17.525 67.9559C15.9596 68.1714 14.3955 68.399 12.8363 68.6539C10.6088 69.0176 8.38697 69.4032 6.16576 69.7957C5.27512 69.9531 4.39234 70.1544 3.50562 70.3348C3.40244 70.3558 3.29795 70.3702 3.1941 70.388C3.18263 70.3581 3.17018 70.3252 3.15741 70.2904Z" fill="white"/>
<path d="M105.499 49.9445C105.548 49.6114 105.594 49.278 105.646 48.9452C105.883 47.445 106.12 45.9448 106.358 44.445C106.564 43.1501 106.777 41.8565 106.98 40.5616C107.209 39.1045 107.433 37.6463 107.664 36.1895C107.914 34.6033 108.173 33.018 108.423 31.4317C108.653 29.9749 108.877 28.5168 109.107 27.0599C109.311 25.7647 109.521 24.4705 109.727 23.1756C109.912 22.0102 110.096 20.8446 110.278 19.6789C110.383 19.0206 110.489 18.3627 110.597 17.705C110.643 17.4209 110.662 17.4094 110.946 17.3798C110.99 17.3756 111.033 17.3746 111.077 17.3733C112.126 17.344 113.172 17.3171 114.219 17.2856C115.702 17.2407 117.185 17.1937 118.668 17.1446C119.344 17.123 120.02 17.098 120.697 17.0789C121.016 17.0704 121.057 17.1213 121.01 17.4419C120.781 18.9763 120.545 20.5096 120.317 22.0443C120.087 23.5882 119.868 25.137 119.638 26.6825C119.411 28.2172 119.175 29.7506 118.947 31.2852C118.761 32.5387 118.582 33.7935 118.397 35.0474C118.233 36.1498 118.065 37.2515 117.901 38.3536C117.737 39.4556 117.579 40.5593 117.416 41.6617C117.255 42.7536 117.093 43.8452 116.93 44.9364C116.884 45.2386 116.845 45.5431 116.778 45.8407C116.327 47.8136 114.796 49.2652 112.814 49.5956C112.514 49.6459 112.206 49.6577 111.902 49.6741C110.878 49.729 109.854 49.7756 108.83 49.8301C107.762 49.8866 106.696 49.9487 105.628 50.0082L105.499 49.9445Z" fill="white"/>
<path d="M101.222 63.9921C101.626 63.368 102.039 62.7511 102.432 62.1197C103.117 61.0209 103.52 59.8108 103.793 58.5534C103.948 57.8389 104.087 57.1205 104.24 56.3647C104.325 56.3499 104.41 56.3407 104.496 56.3364C106.34 56.3364 108.185 56.3309 110.029 56.3404C111.012 56.3453 111.993 56.3601 112.974 56.3982C114.238 56.4471 115.501 56.5128 116.763 56.5953C117.208 56.6235 117.648 56.7165 118.09 56.7733C118.402 56.8131 118.635 56.9767 118.835 57.2069C119.378 57.8294 119.663 58.5675 119.775 59.3723C120.011 61.0604 119.759 62.685 119.085 64.244C118.978 64.4927 118.815 64.7174 118.676 64.9519C118.593 65.0909 118.47 65.1211 118.312 65.1076C117.259 65.017 116.205 64.9279 115.151 64.8504C113.847 64.7545 112.541 64.6648 111.236 64.5817C110.148 64.5118 109.059 64.4477 107.97 64.3902C106.533 64.3163 105.095 64.2529 103.657 64.1849C102.851 64.1471 102.045 64.109 101.239 64.0706L101.222 63.9921Z" fill="white"/>
<path d="M117.092 14.5795C114.589 14.4902 112.725 13.4298 111.72 11.1991C110.754 9.05277 111.069 6.99088 112.628 5.1737C113.473 4.18825 114.515 3.5165 115.797 3.27309C117.707 2.91176 119.431 3.28952 120.922 4.6005C121.631 5.22462 122.251 5.91181 122.576 6.8066C123.351 8.94339 123.039 10.8903 121.495 12.5991C120.632 13.5517 119.589 14.1945 118.32 14.432C117.893 14.5122 117.456 14.5371 117.092 14.5795Z" fill="#FD5FF4"/>
<path d="M102.803 14.9668C100.393 14.9156 98.6644 13.9196 97.5231 11.9546C96.9234 10.9218 96.7871 9.782 96.8929 8.59322C97.0842 6.44427 98.932 4.35019 100.93 3.79735C103.054 3.21068 104.985 3.56741 106.66 5.07844C107.388 5.73541 107.999 6.47121 108.298 7.41068C108.953 9.45516 108.633 11.3167 107.183 12.9417C106.32 13.9084 105.278 14.5736 103.996 14.8167C103.56 14.9011 103.113 14.9294 102.803 14.9668Z" fill="#FD5FF4"/>
<path d="M105.499 49.9445L105.63 50.0102C105.543 50.0726 105.501 50.0492 105.499 49.9445Z" fill="white"/>
<path d="M101.222 63.9921L101.239 64.0706L101.222 63.9921Z" fill="white"/>
</g>
<defs>
<clipPath id="clip0_1_6">
<rect width="123" height="70" fill="white" transform="translate(0 0.390961)"/>
</clipPath>
</defs>
</svg>
