<svg width="38" height="49" viewBox="0 0 38 49" fill="none" xmlns="http://www.w3.org/2000/svg">
<rect x="0.10614" y="19.6091" width="26.3015" height="26.3015" rx="5" transform="rotate(-45.3534 0.10614 19.6091)" fill="#8659D1" fill-opacity="0.16"/>
<rect x="0.10614" y="29.5757" width="26.3015" height="26.3015" rx="5" transform="rotate(-45.3534 0.10614 29.5757)" fill="#8659D1" fill-opacity="0.16"/>
<g filter="url(#filter0_i_1_32)">
<rect x="0.10614" y="24.7597" width="26.3015" height="26.3015" rx="5" transform="rotate(-45.3534 0.10614 24.7597)" fill="#8659D1"/>
</g>
<path d="M21.6966 27.0217C20.0535 28.2424 19.1732 31.4427 18.9384 32.8902C18.5668 31.5992 17.5299 28.7119 16.3563 27.4912C15.1826 26.2706 11.6103 25.4607 10.077 24.8504C11.6615 24.4005 14.9509 24.0219 16.3563 22.503C18.1288 20.5873 18.5863 18.1017 18.9384 16.3998C19.1732 17.6713 19.9126 20.6721 20.9924 22.503C22.0722 24.334 25.6676 25.0265 27.3303 25.1438C26.1371 25.2612 23.3398 25.8011 21.6966 27.0217Z" fill="#D9D9D9"/>
<defs>
<filter id="filter0_i_1_32" x="2.17706" y="8.11835" width="33.0534" height="37.0534" filterUnits="userSpaceOnUse" color-interpolation-filters="sRGB">
<feFlood flood-opacity="0" result="BackgroundImageFix"/>
<feBlend mode="normal" in="SourceGraphic" in2="BackgroundImageFix" result="shape"/>
<feColorMatrix in="SourceAlpha" type="matrix" values="0 0 0 0 0 0 0 0 0 0 0 0 0 0 0 0 0 0 127 0" result="hardAlpha"/>
<feOffset dy="4"/>
<feGaussianBlur stdDeviation="2"/>
<feComposite in2="hardAlpha" operator="arithmetic" k2="-1" k3="1"/>
<feColorMatrix type="matrix" values="0 0 0 0 0.698039 0 0 0 0 0.396078 0 0 0 0 0.843137 0 0 0 1 0"/>
<feBlend mode="normal" in2="shape" result="effect1_innerShadow_1_32"/>
</filter>
</defs>
</svg>
