<svg xmlns="http://www.w3.org/2000/svg" fill="none" width="127" height="32" viewBox="0 0 127 32"><path d="M24.14 7.146h15.35c.12 0 .222.099.222.218v5.047c0 .06-.04.119-.101.139l-.443.168c-.181.07-.392-.01-.463-.188-.433-.974-1.832-3.825-3.392-3.825h-3.996l-.13 7.321h1.811s1.812.259 2.285-2.493c.02-.09.1-.159.191-.159h.775v6.487h-.775a.226.226 0 0 1-.221-.189c-.08-.606-.463-2.424-2.094-2.424h-1.942v4.54s-.312 3.427 2.476 3.368c.17 0 .312.139.312.308V26H24v-.516c0-.12.09-.219.211-.229.624-.06 2.436-.447 2.436-2.97v-12.15s-.03-2.036-2.536-2.095A.112.112 0 0 1 24 7.93v-.645c0-.08.06-.14.14-.14Zm21.94 4.119s-6.693.149-6.693 7.302c0 7.152 6.945 6.904 6.945 6.904s6.693.099 6.693-7.45c0-7.104-6.945-6.756-6.945-6.756Zm2.366 10.729c-.272 1.291-1.037 2.354-2.014 2.453-.976.1-1.74-.824-2.184-2.016-.432-1.192-.805-5.265-.302-7.55.504-2.285 1.943-2.483 1.943-2.483 1.41-.07 2.114 1.162 2.546 2.453.433 1.292.282 5.851.01 7.143Z" fill="#878E96"/><path d="m53.025 12.487 5.959-1.222v2.821s2.113-3.943 5.535-2.314l-1.48 3.695s-2.284-1.49-4.055 0l.11 7.43c.01.686.554 1.253 1.238 1.302l.846.06c.08.01.14.07.14.149v.685h-8.303v-.616c0-.099.07-.188.181-.208l.564-.1c.574-.099.986-.586.986-1.152l.06-8.682s-.12-1.222-1.61-1.262c-.1 0-.191-.09-.191-.189v-.397h.02Z" fill="#878E96"/><path d="M75.047 12.13c-2.687-1.49-5.606.168-5.606.168V6l-5.888 1.132c-.08.02-.13.1-.1.18l.03.079c.06.169.201.308.372.357l.433.13c.594.168.996.705.996 1.31v15.359a.3.3 0 0 0 .242.298c.574.12 2.194.417 5.133.636 4.63.347 6.774-3.18 7.136-5.832.373-2.652-.06-6.03-2.748-7.52Zm-1.54 7.847c-.674 5.563-3.995 4.371-3.995 4.371V13.222c2.617-.665 4.67 1.192 3.995 6.755Zm17.947-2.126s.432-6.934-5.838-6.626c-6.603.338-6.603 6.696-6.603 7.987 0 1.292 1.38 6.438 6.412 6.259 4.6-.17 5.837-2.553 5.837-2.553l-.443-.328a.29.29 0 0 0-.342-.01c-.644.407-2.969 1.669-5.244-.02-2.405-1.788-2.003-4.699-2.003-4.699h8.224v-.01ZM83.17 16.66s.433-4.242 2.285-4.271c1.842-.03 1.781 4.271 1.781 4.271H83.17Zm18.751-4.669v3.745h-.423a.317.317 0 0 1-.292-.198c-.302-.775-1.56-3.577-3.613-3.15-2.385.497-1.54 3.05-.403 3.547 1.138.497 5.667 1.957 5.506 4.5-.161 2.543-1.379 4.838-5.304 5.037-3.926.198-5.204-.865-5.204-.865v-3.973l.272-.14a.273.273 0 0 1 .372.13c.383.864 1.731 3.586 3.644 3.447 2.284-.169 2.848-1.62 2.043-2.95-.805-1.322-5.667-1.66-5.938-4.401-.272-2.752.543-4.53 4.056-5.335 2.204-.487 5.284.606 5.284.606Z" fill="#878E96"/></svg>