<svg xmlns="http://www.w3.org/2000/svg" fill="none" width="108" height="32"><g fill="#878e96" clip-path="url(#a)"><path d="M.091 6.533C.04 6.428 0 6.383 0 6.339c.026-1.402-.112-1.332 1.162-1.331l7.538.003c.281 0 .575-.066.845.121.023.067.072.138.068.207L9.42 8.906c-.004.07-.055.136-.094.228-.589.021-1.179.072-1.779-.038-.238-.8-.076-1.633-.285-2.411-.077-.043-.139-.106-.201-.107l-2.224-.016c-.287.003-.382.123-.41.417-.012.126-.011.253-.011.381l.002 4.491c0 .197.033.394.05.577.539.147.539.147 1.176.034l.335-1.222c.364-.108.721-.076 1.075-.038.159.018.246.142.264.312.006.051.01.101.01.152l-.008 3.349c0 .073-.031.147-.053.245-.406.193-.822.13-1.269.046l-.335-1.209c-.568-.167-.578-.167-1.172-.008-.023.127-.072.27-.072.414l-.002 5.252c0 .148.036.296.054.434.495.152 1.554.182 2.77.081.047-.138.127-.292.15-.457l.102-1.058c.036-.375.026-.759.199-1.145.611-.08 1.226-.018 1.816-.012.198.174.163.392.173.586l.129 2.809c.039.825-.023.9-.83.901H.87c-.798 0-.809-.021-.75-.852l.036-.627c.395-.241.898-.128 1.321-.445l.036-.645.003-11.722c0-.658.043-.931-.842-.966-.207-.009-.413-.072-.583-.103zm44.773 5.503c-.395-.351-.826-.231-1.185-.44a2.36 2.36 0 0 1 .02-1.157l3.105-.472.24.503c.066.16.113.323.187.54.154-.096.285-.152.386-.245.859-.79 1.859-.996 2.95-.793.874.162 1.534.661 1.984 1.475a5.47 5.47 0 0 1 .632 1.928c.125.927.26 1.858.205 2.8-.056.961-.105 1.925-.356 2.856-.205.764-.521 1.462-1.08 2.024s-1.215.899-1.982.943c-.714.04-1.437.088-2.132-.174-.06-.023-.138.009-.227.018-.03.096-.085.19-.085.282v3.652c0 .094.057.188.08.256.318.25.744.112 1 .405.018.038.038.062.036.085-.017 1.273-.114 1.085-1.038 1.091h-3.015c-.236 0-.472-.015-.692-.022-.233-.334-.165-.672-.117-.987.018-.116.171-.245.29-.299.215-.099.452-.146.646-.205.189-.226.14-.463.142-.685l.002-3.577v-9.802h.005zm2.647 4.251v3.268c-.004.327.131.517.417.622.585.214 1.177.167 1.767.055.421-.08.667-.373.737-.821.072-.474.19-.948.2-1.425l-.002-3.797c-.01-.424-.108-.855-.224-1.265-.219-.768-.678-1.101-1.441-1.11l-.359.016c-.44.038-.751.271-.97.681-.115.215-.123.433-.124.658v3.117zm24.038-4.201c-.293-.213-.568-.145-.822-.187-.246-.041-.349-.133-.359-.388-.014-.323-.079-.659.132-1.01l2.956-.419.448.917c.47-.352.913-.691 1.441-.872.951-.326 1.881-.312 2.785.168.607.323 1.006.838 1.217 1.523a5.14 5.14 0 0 1 .229 1.569L79.57 19.4v.813c.245.236.51.25.764.305.32.067.381.171.357.533-.054.818-.078.845-.847.85a117.13 117.13 0 0 1-2.371-.003c-.494-.007-.565-.095-.584-.634l-.003-.685-.004-6.316a6.33 6.33 0 0 0-.113-1.206c-.134-.67-.518-.979-1.17-.997a2.7 2.7 0 0 0-.499.044c-.45.071-.785.425-.844.893a3.49 3.49 0 0 0-.012.457v6.088l.029.623c.285.437.767.223 1.068.492.019.076.055.149.051.22-.044.935.011 1.04-.973 1.031-1.078-.011-2.153.003-3.23-.005-.667-.005-.73-.095-.716-.8.009-.403.115-.55.491-.601.184-.025.362-.106.558-.166.027-.175.07-.32.07-.465v-7.305c.002-.158-.027-.308-.044-.477zm-59.81 8.165c.083-.595.127-6.008.06-7.759-.006-.147-.036-.293-.061-.477l-1.149-.19c-.031-.152-.074-.27-.078-.39-.034-.997.044-.947.822-1.024l1.846-.275c.465-.073.516-.042.673.431l.108.282c.009.021.032.038.051.057.196.094.303-.072.431-.173.893-.699 1.881-.958 2.979-.751 1.192.225 2.017 1.102 2.187 2.209a7.21 7.21 0 0 1 .105 1.054l.006 6.169.019.791c.239.259.513.253.766.312.235.055.319.166.337.419a1.9 1.9 0 0 1-.159.897l-.503.059h-2.442a2.363 2.363 0 0 1-.428-.036.32.32 0 0 1-.272-.308l-.017-.685-.002-6.778-.024-.838c-.072-.712-.503-1.156-1.167-1.195a2.76 2.76 0 0 0-.641.052c-.368.065-.691.433-.734.821a3.53 3.53 0 0 0-.009.381v6.397c0 .175.022.351.032.499.218.252.489.254.746.308.241.051.329.165.329.419 0 .303-.018.605-.19.925l-4.554.034c-.232-.422-.153-.796-.063-1.157.023-.091.164-.179.267-.211.25-.074.528-.058.73-.269zm85.311 1.557-.373-.746-.356.244c-.658.513-1.377.776-2.212.724-.554-.034-1.097-.057-1.606-.323a2.69 2.69 0 0 1-1.431-1.89 5.88 5.88 0 0 1-.125-1.206l-.008-6.017c0-.274.038-.557-.072-.813-.349-.251-.766-.14-1.139-.319-.117-.302-.064-.623-.036-.981.589-.269 1.221-.19 1.826-.294.586-.101 1.168-.238 1.776-.166a3.77 3.77 0 0 1 .323 1.574l-.006 6.626c0 .411.033.805.2 1.187a1.38 1.38 0 0 0 .46.564c.431.327 1.5.345 1.922-.219.139-.187.24-.371.239-.615l-.012-7.159c0-.07-.04-.141-.075-.255l-1.076-.238c-.139-.472-.135-.472-.027-1.02.356-.175.762-.177 1.162-.222l1.209-.163c.404-.043.8-.162 1.214-.021.237.433.306.897.303 1.388l-.002 4.57v3.503l.022.796.992.278c.155.39-.036.755.013 1.142-.144.058-.249.137-.356.138-.862.007-1.724 0-2.584-.006-.047.005-.091-.029-.169-.059zm-32.5-5.051c-.049 1.057.188 1.942.757 2.704.388.519.934.769 1.557.82.56.046 1.091-.098 1.616-.271l.754-.265a2.41 2.41 0 0 1 .475 1.078c-.568.58-1.235.88-1.932 1.034-1.153.255-2.308.337-3.43-.249-.854-.446-1.453-1.13-1.895-1.994-.416-.812-.639-1.69-.715-2.606-.096-1.142-.072-2.281.221-3.394.287-1.094.769-2.061 1.614-2.807 1.016-.897 3.015-1.361 4.582-.371.703.444 1.163 1.131 1.47 1.911.389.99.566 2.037.599 3.11.005.176.015.366-.036.527-.206.626-.227.708-.838.711l-3.943.045-.856.02zm-.036-1.568c.124.059.167.097.209.096l2.579-.054c.305-.011.409-.152.403-.5-.015-.822-.18-1.612-.534-2.343a1.767 1.767 0 0 0-.456-.571c-.503-.415-1.371-.237-1.616.34a7.032 7.032 0 0 0-.585 3.032zm19.413 1.648c-.108 1.047.152 1.974.814 2.736.582.67 1.357.814 2.18.668.305-.054.603-.158.901-.249l.757-.255c.263.302.331.68.487 1.019-.054.076-.085.148-.137.19a4.706 4.706 0 0 1-2.786 1.068l-.647.005c-1.626.043-2.77-.803-3.598-2.209-.278-.473-.51-.975-.598-1.535-.11-.699-.307-1.398-.307-2.098 0-1.48.218-2.932.966-4.23.634-1.099 1.557-1.764 2.755-1.987.792-.147 1.566-.107 2.322.233.739.332 1.261.895 1.659 1.612.421.755.626 1.586.749 2.443l.103 1.136a2.57 2.57 0 0 1-.056.676c-.116.502-.262.619-.748.626l-4.021.05c-.257.002-.523-.048-.794.099zm-.014-1.561h1.13l1.571-.041c.365-.018.462-.135.44-.519-.042-.762-.172-1.503-.489-2.192a2.09 2.09 0 0 0-.414-.601c-.6-.594-1.487-.37-1.809.432-.33.825-.445 1.697-.505 2.58-.005.093.04.189.075.343v-.001zm-41.292 4.481c.156.365.376.668.395 1.098-.701.639-1.541.971-2.448 1.118-.375.061-.763.043-1.145.045-1.677.009-2.845-.876-3.637-2.379-.548-1.04-.749-2.179-.778-3.361-.02-.815.031-1.621.209-2.415.237-1.054.647-2.008 1.389-2.78.855-.89 1.901-1.244 3.067-1.195 1.599.067 2.688.948 3.277 2.503a8.83 8.83 0 0 1 .584 3.187c-.002.4-.095.744-.371 1.083l-2.618.073c-.881.023-1.762-.038-2.646.04-.132.487-.007.914.092 1.313.24.966.692 1.778 1.678 2.096.449.145.898.135 1.346.038.325-.071.64-.195.962-.29l.644-.173zm-4.828-4.493.501.04 1.571-.052.786-.022c.261-.022.389-.179.376-.451-.039-.786-.158-1.554-.473-2.279a1.68 1.68 0 0 0-.529-.7c-.52-.39-1.372-.215-1.616.367-.398.955-.588 1.963-.615 3.098v-.002zm63.003-3.446a2.347 2.347 0 0 1-.011-1.247c.489-.229 1.029-.152 1.538-.267s1.037-.139 1.52-.199c.334.183.233.582.473.828.139-.051.309-.078.441-.168.666-.45 1.43-.544 2.177-.706.467-.102.846.011 1.137.523-.133.965-.132 2.003-.356 3.017-.611.229-1.167-.028-1.745.026-.164-.555-.074-1.116-.33-1.599-.084 0-.155-.015-.218.002-.717.201-.748.239-.749 1.038v6.541l.002.229c.018.517.047.556.502.661.093.022.192.023.282.052.15.048.257.165.256.329-.002.299-.033.597-.053.922-.179.038-.313.091-.447.092l-3.73.008c-.582.003-.682-.198-.592-.735.017-.099.014-.203.032-.302a.39.39 0 0 1 .088-.204.353.353 0 0 1 .181-.116l.634-.179.06-.548V12.59c0-.173-.031-.345-.051-.562l-1.041-.21zm-45.623.211c-.389-.187-.767-.004-1.094-.328l-.014-.776c.013-.334.111-.432.441-.476l1.781-.223.925-.139c.274.218.278.587.463.895.112-.051.222-.085.314-.148.704-.476 1.504-.624 2.306-.778.441-.085.803.007 1.083.441.033 1.016-.175 2.032-.295 3.08-.581.259-1.14.013-1.699.022-.349-.464-.074-1.073-.374-1.561-.389-.004-.746.056-1.042.457l-.005 7.704c.245.289.501.259.729.316.313.079.395.196.387.53 0 .026-.005.051-.007.076-.036.709-.085.767-.768.771h-3.448c-.185 0-.37-.041-.594-.068l-.053-.617c.01-.495.078-.568.565-.716.134-.041.26-.105.373-.152.114-.673.156-4.93.08-7.787-.003-.174-.035-.345-.055-.524zm-30.411-1.832c.616.112 1.195-.035 1.766.111.08.466-.041.881-.064 1.32-.522.332-1.123.211-1.695.361-.029.188-.078.357-.078.526l-.007 6.542c-.005.896.335 1.345 1.205 1.257.189-.019.382 0 .575.01.046.002.09.029.166.056a2.85 2.85 0 0 1 .072 1.253 2.21 2.21 0 0 1-1.091.348l-1.577.025c-1-.051-1.702-.659-1.945-1.699a5.84 5.84 0 0 1-.135-1.276l-.007-6.162-.024-.818c-.367-.238-.808-.079-1.152-.419-.136-.398-.013-.841 0-1.281.435-.228.884-.065 1.337-.209.323-.651.413-1.418.689-2.142.531-.183 1.085-.101 1.626-.131.076-.004.213.143.231.239.041.22.024.453.036.68.02.451-.06.909.073 1.409zm3.767 1.804-.97-.149c-.204-.214-.167-.451-.17-.675s-.019-.461.147-.647a.526.526 0 0 1 .13-.054l2.82-.371c.359.169.287.586.503.867l.503-.252c.75-.437 1.573-.575 2.405-.689.364-.05.57.197.785.426.042.848-.128 2.358-.361 3.178-.535.167-1.07-.027-1.63-.029-.278-.482-.149-1.054-.332-1.54-.266-.107-.492.012-.704.103a.6.6 0 0 0-.378.591l-.004.457-.004 6.163v.228c.008.738.008.736.679.9.114.028.247.047.331.121.278.244.086.571.097.86.008.197-.115.327-.297.376a.83.83 0 0 1-.213.025c-1.293 0-2.584.008-3.876-.004-.392-.004-.486-.139-.477-.581a1.56 1.56 0 0 1 .061-.446c.067-.205.224-.3.427-.357.554-.156.557-.167.564-.762l.002-1.752V12.89l-.04-.89zm78.736 9.95a.54.54 0 0 1-.225-.036.57.57 0 0 1-.194-.126.6.6 0 0 1-.133-.196.63.63 0 0 1-.051-.235.57.57 0 0 1 .138-.412.53.53 0 0 1 .171-.131.506.506 0 0 1 .205-.049.52.52 0 0 1 .546.468c.04.397-.151.696-.457.716z"/></g><defs><clipPath id="a"><path d="M0 0h108v32H0z" fill="#fff"/></clipPath></defs></svg>