<svg xmlns="http://www.w3.org/2000/svg" fill="none" width="94" height="32" viewBox="0 0 94 32"><path d="M0 18.394v-1.668c0-.768.614-1.387 1.374-1.387h9.324v.866H6.304v11.987H4.582V16.12H2.455a2.018 2.018 0 0 0-2.009 2.027v.268L0 18.394Zm15.738.731c-2.65-1.316-5.6 1.317-5.6 3.71s.09 4.561 3.124 5.49c.76.233 2.804.05 3.62-.915l.816-.964-.468-.373s-.788 1.359-1.952 1.478c-1.165.12-3.229.07-3.348-3.66h5.928c-.007-.007.53-3.456-2.12-4.766Zm.37 4.034h-4.136s.014-3.604 2.044-3.52c2.3.099 2.092 3.52 2.092 3.52Zm10.649-1.105h.397v-1.76s-.16-1.126-1.743-1.358c-1.583-.233-4.952-.402-5.768 3.61 0 0-.718 3.731 2.093 5.372 0 0 1.415.732 2.88.492 1.862-.302 2.859-2.013 2.859-2.013l-.398-.373s-.718 1.83-3.159 1.549c-2.44-.282-2.461-3.196-2.461-3.921 0-.725.258-3.541 2.21-3.865 1.946-.338 2.95.556 3.09 2.267Zm.928-6.687h2.232c.767 0 1.395.633 1.395 1.407v3.027s.976-.865 2.28-.865c1.304 0 3.208.302 3.466 2.625v6.617h-1.673v-6.314s-.328-2.182-2.086-2.063c-1.352.092-2.05.979-2.05.979v7.391h-1.743V16.979a1.19 1.19 0 0 0-1.186-1.197h-.628v-.415h-.006Zm10.579 3.688h2.67c.461 0 .838.38.838.845 0 0 1.115-1.197 2.977-1.007 1.862.19 2.741 1.43 2.839 2.443v6.947h-1.695v-6.405s-.237-1.957-1.932-2.09c-1.185-.092-2.07.985-2.07.985v7.412h-1.793V20.78c0-.67-.537-1.211-1.2-1.211h-.641v-.514h.007Zm10.53.021h2.322c.746 0 1.346.613 1.346 1.359v7.834h-1.834v-7.574c0-.612-.488-1.105-1.095-1.105h-.746v-.514h.007Zm2.532-1.105c.578 0 1.046-.473 1.046-1.056a1.05 1.05 0 0 0-1.046-1.056c-.578 0-1.046.473-1.046 1.056 0 .583.468 1.056 1.046 1.056Zm10.438 4.062h.468v-1.598s-.3-1.197-1.235-1.359c-.927-.162-4.044-.795-5.488 1.479-1.444 2.273-.976 5.582.44 6.687 1.415 1.105 2.74 1.499 4.442.915 1.694-.584 1.973-1.76 1.973-1.76l-.3-.373s-.906 1.992-3.208 1.527c-2.301-.464-2.6-3.357-2.44-4.596.16-1.246.997-3.287 2.789-3.26 1.792.015 2.56.98 2.56 2.338Zm8.99-1.471c-.314-.648-.823-1.303-1.646-1.486-1.332-.288-3.117-.274-4.107.416a1.536 1.536 0 0 0-.642 1.225l-.014.59h.928s.209-1.64 1.722-1.618c1.513.021 2.322.633 2.322 1.97v1.338s-4.832-.415-5.37 2.063c-.578 2.696 1.904 3.33 2.56 3.364.648.036 2.322-.154 2.929-1.112l.85.86h.921v-5.604a4.714 4.714 0 0 0-.453-2.006Zm-1.416 5.884s-.579 1.246-2.07 1.035c-1.486-.21-1.556-1.429-1.486-2.302.07-.865 1.374-1.386 3.556-1.499v2.767Zm4.604 1.71h1.883V13.868l1.673-1.126v-2.203l-3.556 2.273v15.346Zm3.556-18.583V7.342l-2.79 1.739v2.231l2.79-1.739Zm0-3.118V4.083L75.894 5.16v2.302l1.604-1.007Zm4.455 21.702H80.07v-14.29l-1.674-1.126v-2.203l3.557 2.273v15.346ZM78.396 9.573V7.342l2.79 1.739v2.231l-2.79-1.739Zm0-3.118V4.083L80 5.16v2.302l-1.604-1.007Zm.588 19.71H77.01v1.992h1.974v-1.992ZM78.39 0h-.893v3.4h.892V0Zm5.642 18.9h1.792a2.81 2.81 0 0 1 2.608 1.788l1.98 5.047 2.476-6.687h.977L89.89 30.156A2.772 2.772 0 0 1 87.289 32h-.78v-.563h.278a2.476 2.476 0 0 0 2.371-1.795l.35-1.204-3.14-7.771a2.008 2.008 0 0 0-1.652-1.246l-.683-.07v-.45Z" fill="#878E96"/></svg>