<svg xmlns="http://www.w3.org/2000/svg" fill="none" width="44" height="32" viewBox="0 0 44 32"><g fill="#878E96" clip-path="url(#a)"><path d="M0 8h10.458v3.706H8.567v8.593h1.89v3.42H0V20.3h2.007v-8.634H0V8Zm11.113 3.664h6.368v2.485s1.427-2.2 4.206-2.24c2.778-.04 4.592.773 4.9 3.054v5.335h1.39v3.42H19.99v-3.42h1.544v-3.91s-.31-1.221-1.776-1.221-2.006 1.507-2.006 1.507l-.039 3.583h1.467v3.462h-8.066v-3.38h1.467v-5.254h-1.467v-3.42Z"/><path d="m36.469 16.868 4.322-.408s.077-3.828-4.322-4.764c-4.4-.937-8.436.912-9.069 4.642-.733 4.317 2.316 7.616 7.757 7.371 5.441-.244 5.634-4.642 5.634-4.642l-4.284-.082s-.115 1.874-1.852 1.874c-1.736 0-2.007-1.589-2.007-1.589s-.386-3.868.618-4.56c1.003-.693 2.508-.449 2.817.488.309.937.386 1.67.386 1.67Zm6.165 6.85c.989 0 1.79-.845 1.79-1.889 0-1.043-.801-1.89-1.79-1.89-.99 0-1.79.847-1.79 1.89 0 1.044.8 1.89 1.79 1.89Z"/></g><defs><clipPath id="a"><path d="M0 0h44v32H0z" fill="#fff"/></clipPath></defs></svg>