<svg xmlns="http://www.w3.org/2000/svg" fill="none" width="110" height="32" viewBox="0 0 110 32"><path d="m20.244 10.174-2.153 12.06h-3.877l.833-4.527h-3.54l-.81 4.527H6.82l2.225-12.06h3.805l-.775 4.354h3.56l.804-4.354h3.805Zm2.333 0h4.02l-1.256 6.773s-.574 2.626 1.256 2.626c2.046 0 2.261-2.66 2.261-2.66l1.22-6.739h3.95l-1.473 8.051s-.43 4.32-6.245 4.32c0 0-5.671.242-5.025-5.08l1.292-7.29Zm16.992 3.18-.366 2.349h3.475l-.574 2.937H38.75l-.56 3.628h-3.91l.603-3.628.488-2.937.919-5.529h8.722l-.574 3.18H39.57Zm10.445 0-.366 2.349h3.474l-.574 2.937h-3.352l-.56 3.628h-3.913l.603-3.628.488-2.937.92-5.529h8.721l-.574 3.18h-4.867Zm12.943-3.18h-5.6l-2.153 12.094h4.056l.502-3.11h2.405s4.271.104 4.774-4.388c.502-4.492-3.984-4.596-3.984-4.596Zm.323 4.596c-.288 1.451-1.58 1.486-1.58 1.486l-1.471-.035.502-2.937h1.4s1.436.035 1.149 1.486Zm11.7-4.768c-2.404-.048-6.101 1.106-6.912 5.46-.366 1.983-.56 5.874 3.61 6.807 4.172.933 7.323-1.14 8.292-4.354.97-3.214.467-7.81-4.99-7.913Zm1.257 5.84c-.251 1.762-.754 3.593-2.728 3.593-1.974 0-1.436-2.868-1.184-4.112.251-1.244 1.22-2.35 2.369-2.28 1.148.069 1.794 1.036 1.543 2.799Zm15.327-3.353s-.359-2.557-4.379-2.488c-4.02.07-5.24 1.97-5.097 4.769.144 2.799 3.159 3.006 3.697 3.144.539.139.984.56.862 1.14-.144.692-1.58 1.417-2.656-.241l-3.482 1.009s.43 1.79 2.62 2.446c2.19.657 6.569.553 7.538-2.73.969-3.282-1.687-4.319-3.087-4.803-1.4-.483-1.938-.553-1.543-1.52.394-.968 1.615-.518 2.081.207l3.446-.933Zm1.687-2.315h10.158l-.539 3.248h-3.05l-1.487 8.846h-4.005l1.615-8.846H92.64l.61-3.248Zm11.952 0h4.559v12.094h-6.64l2.081-12.094ZM0 10.312h6.82L4.523 22.234H.143L0 10.312Z" fill="#878E96"/></svg>