<svg xmlns="http://www.w3.org/2000/svg" fill="none" width="90" height="32" viewBox="0 0 90 32"><g clip-path="url(#a)"><path d="M42.363 10.863v-4.22l-.664-.054v-.576h3.43v14.742l.7.044v.59H42.4l-.039-.794c-.643.477-1.32.766-2.089.797-.345.019-.69.006-1.033-.036-.73-.103-1.245-.51-1.52-1.18-.106-.26-.21-.544-.214-.818-.034-2.365-.087-4.732-.041-7.097.023-1.12.78-1.75 1.929-1.872.934-.105 1.47-.02 2.97.474Zm-.077 4.831v-3.7c0-.132-.01-.334-.092-.384-.452-.28-.954-.45-1.483-.262-.456.164-.42.596-.42.981a1810.4 1810.4 0 0 0-.006 6.592c-.006.24.014.48.059.717.1.459.45.675.935.61.548-.073 1.01-.46 1.01-.85 0-1.236-.001-2.47-.003-3.704ZM62.29 24.91l.65.031v.567h-4.145v-.555l.676-.054V11.092l-.673-.044v-.546c1.096 0 2.176-.008 3.256.014.101 0 .198.2.323.333a5.393 5.393 0 0 1 2.805-.47c1.238.123 1.912.765 2.018 1.985.04.465.019.936.019 1.403 0 1.532.02 3.063-.01 4.595-.01.551-.086 1.1-.23 1.632-.224.817-.818 1.289-1.68 1.38-1.053.113-2.081.048-3.01-.643v4.18Zm.168-9.163v3.785c0 .144.017.35.11.421.403.315.882.45 1.382.286.469-.156.502-.588.503-.99.006-2.354.006-4.708 0-7.063 0-.795-.37-1.063-1.173-.886-.169.036-.328.108-.494.156-.26.076-.346.234-.341.504.02 1.264.013 2.526.013 3.787ZM10.095 6.638l-.662-.053V6h3.44v4.918c.907-.397 1.78-.596 2.707-.545 1.512.085 2.263.833 2.27 2.326.01 2.48 0 4.96 0 7.442v.53l.703.049v.582H14.39v-.582l.678-.042V12.47c0-.44.051-.928-.476-1.13-.576-.219-1.106.008-1.604.286-.064.035-.102.17-.102.255 0 2.906.003 5.812.009 8.718 0 .011.014.023.044.073l.635.044v.596H9.437v-.593l.658-.04V6.638Zm65.993 14.037.706.041v.583h-4.161v-.58l.683-.049v-8.21c0-.44.036-.924-.493-1.12-.578-.212-1.107.014-1.602.298-.061.035-.087.17-.087.255 0 2.893.002 5.786.005 8.678a.414.414 0 0 0 .043.109l.64.035v.584h-4.13v-.58l.646-.045V6.642l-.657-.06v-.578h3.456v4.816c.688-.15 1.34-.308 1.994-.431.244-.03.49-.033.734-.007 1.434.073 2.205.838 2.213 2.248.015 2.522 0 5.046.005 7.572l.005.473ZM.736 6.647 0 6.614V6.04C.043 6.021.07 6 .094 6c2.007.017 4.013.024 6.019.064.352.007.71.123 1.05.236.991.333 1.647 1.021 1.716 2.042.091 1.355.094 2.715.008 4.07-.072 1.112-.788 1.847-1.883 2.127-.607.158-1.248.204-1.878.255-.457.04-.92.008-1.413.008v5.875h.732v.63H0v-.595h.736V6.647Zm3.062 7.459c1.56.242 2.08-.17 2.154-1.677 0-.042.006-.085.006-.127 0-1.26.008-2.52 0-3.781a4.727 4.727 0 0 0-.114-.967c-.128-.577-.45-.851-1.05-.897-.325-.027-.654-.005-.992-.005l-.004 7.454Zm83.128.545c0-.987.034-1.947-.013-2.903-.028-.56-.447-.832-1.065-.82-.586.012-.936.288-1.004.851-.053.431-.051.87-.074 1.325h-2.39c-.216-.816.103-1.717.848-2.142a4.335 4.335 0 0 1 1.409-.494 8.197 8.197 0 0 1 3.269.093c1.084.255 1.642.891 1.788 1.98.04.295.062.592.064.89.005 2.282.005 4.563 0 6.845v.483l.684.046v.585h-3.447v-.785c-.076.027-.15.06-.219.1-.899.664-1.917.822-2.998.646-.954-.156-1.602-.86-1.688-1.995a21.725 21.725 0 0 1-.008-3.223c.087-1.156.89-1.821 2.112-1.911.967-.072 1.6.031 2.732.429Zm-.105 2.995c0-.609.005-1.218 0-1.827a.559.559 0 0 0-.103-.345c-.28-.314-1.025-.47-1.416-.31-.46.191-.476.6-.478 1.005a379.515 379.515 0 0 0 0 3.017 2.27 2.27 0 0 0 .058.548c.112.425.447.618.932.555.52-.067 1.007-.453 1.01-.814 0-.61-.003-1.219-.003-1.829Zm-53.376-2.983c0-1 .035-1.957-.014-2.913-.027-.556-.41-.81-1.018-.821-.585-.011-.963.255-1.04.806-.061.433-.048.874-.07 1.35h-2.427c-.18-1.058.267-1.98 1.268-2.343 1.568-.57 3.183-.555 4.75-.012 1.128.39 1.365 1.387 1.376 2.427.02 1.942.006 3.884.006 5.826v1.773l.68.045v.579h-3.438l-.036-.807c-.68.546-1.416.781-2.221.84-1.594.113-2.558-.648-2.671-2.213a22.107 22.107 0 0 1-.009-2.887c.077-1.304.877-2.023 2.212-2.094.915-.051 1.804.055 2.652.444Zm-.047 3.006c0-.595-.014-1.191.007-1.787.01-.28-.078-.47-.341-.564-.242-.086-.487-.191-.739-.216-.503-.05-.873.2-.884.662a73.59 73.59 0 0 0 .004 3.863c.013.472.385.704.881.67.535-.037 1.069-.454 1.072-.845.004-.593 0-1.188 0-1.783Zm20.637-.6c0 .701.045 1.369-.01 2.029-.087.983-.646 1.67-1.592 1.98a7.033 7.033 0 0 1-4.548-.022c-.941-.322-1.515-1.014-1.549-2.004-.052-1.532-.036-3.063-.04-4.59 0-.596-.005-1.192.04-1.787.07-.936.574-1.617 1.46-1.933a6.887 6.887 0 0 1 4.747-.014c.913.324 1.435 1.021 1.483 1.966.057 1.072.013 2.15.013 3.276h-4.972v.596c.008 1.09-.015 2.183.036 3.272.04.858.742 1.25 1.57.95.495-.182.59-.596.601-1.032.017-.736.005-1.473.005-2.212v-.477l2.756.002Zm-2.758-1.752c0-.698.006-1.347 0-1.996-.007-.538.006-1.08-.056-1.612s-.38-.766-.904-.806c-.768-.06-1.195.26-1.223 1.03-.04 1.089-.013 2.181-.013 3.272 0 .035.037.07.06.112h2.136Zm6.68 5.443.726.042v.584h-4.161v-.581l.662-.049V6.642l-.656-.052v-.578h3.432l-.003 14.748ZM24.592 6.639l-.665-.054v-.58h3.441v14.672l.729.035v.596h-4.17v-.588l.663-.041.002-14.04Zm-1.966 14.04.694.035v.58h-4.162v-.575l.671-.04v-9.587l-.67-.044v-.51h3.467v10.14Zm58.913.63h-4.146v-.59l.661-.048v-9.579l-.647-.041v-.516h3.432v10.134l.7.05v.59ZM19.864 6.641h2.724v2.687h-2.724V6.642Zm60.963 2.702h-2.716v-2.69h2.713l.004 2.69Z" fill="#878E96"/></g><defs><clipPath id="a"><path d="M0 0h90v32H0z" fill="#fff"/></clipPath></defs></svg>